<mxfile host="65bd71144e">
    <diagram id="yN2Knk4bIOdJcB5o6p54" name="Page-1">
        <mxGraphModel dx="1081" dy="555" grid="1" gridSize="10" guides="1" tooltips="1" connect="1" arrows="1" fold="1" page="1" pageScale="1" pageWidth="850" pageHeight="1100" math="0" shadow="0">
            <root>
                <mxCell id="0"/>
                <mxCell id="1" parent="0"/>
                <mxCell id="_463Km25RN-PHhKoPvhk-11" style="edgeStyle=none;html=1;" parent="1" source="2" target="_463Km25RN-PHhKoPvhk-4" edge="1">
                    <mxGeometry relative="1" as="geometry"/>
                </mxCell>
                <mxCell id="2" value="" style="ellipse;fillColor=#000000;strokeColor=none;" parent="1" vertex="1">
                    <mxGeometry x="210" y="70" width="30" height="30" as="geometry"/>
                </mxCell>
                <mxCell id="3" value="" style="ellipse;html=1;shape=endState;fillColor=#000000;strokeColor=#000000;" parent="1" vertex="1">
                    <mxGeometry x="600" y="490" width="30" height="30" as="geometry"/>
                </mxCell>
                <mxCell id="_463Km25RN-PHhKoPvhk-10" style="edgeStyle=none;html=1;" parent="1" source="_463Km25RN-PHhKoPvhk-4" target="_463Km25RN-PHhKoPvhk-5" edge="1">
                    <mxGeometry relative="1" as="geometry"/>
                </mxCell>
                <mxCell id="_463Km25RN-PHhKoPvhk-4" value="&lt;div style=&quot;color: rgb(212 , 212 , 212) ; font-family: &amp;#34;droid sans mono&amp;#34; , &amp;#34;monospace&amp;#34; , monospace ; line-height: 22px&quot;&gt;&lt;div style=&quot;color: rgb(56 , 58 , 66) ; font-family: &amp;#34;jetbrainsmono nerd font mono&amp;#34; , monospace , &amp;#34;consolas&amp;#34; , &amp;#34;courier new&amp;#34; , monospace ; line-height: 18px&quot;&gt;&lt;font style=&quot;font-size: 12px&quot;&gt;&lt;span style=&quot;color: rgb(193 , 132 , 1)&quot;&gt;Pattern&lt;/span&gt;&lt;span style=&quot;color: rgb(228 , 86 , 73)&quot;&gt; p &lt;/span&gt;= &lt;span style=&quot;color: rgb(228 , 86 , 73)&quot;&gt;Pattern&lt;/span&gt;.&lt;span style=&quot;color: rgb(64 , 120 , 242)&quot;&gt;compile&lt;/span&gt;(&lt;span style=&quot;color: rgb(80 , 161 , 79)&quot;&gt;&quot;(&lt;/span&gt;&lt;span style=&quot;color: rgb(1 , 132 , 188)&quot;&gt;\\&lt;/span&gt;&lt;span style=&quot;color: rgb(80 , 161 , 79)&quot;&gt;d+):([0-5]?&lt;/span&gt;&lt;span style=&quot;color: rgb(1 , 132 , 188)&quot;&gt;\\&lt;/span&gt;&lt;span style=&quot;color: rgb(80 , 161 , 79)&quot;&gt;d):([0-5]?&lt;/span&gt;&lt;span style=&quot;color: rgb(1 , 132 , 188)&quot;&gt;\\&lt;/span&gt;&lt;span style=&quot;color: rgb(80 , 161 , 79)&quot;&gt;d)&quot;&lt;/span&gt;);&lt;/font&gt;&lt;/div&gt;&lt;/div&gt;" style="rounded=1;whiteSpace=wrap;html=1;" parent="1" vertex="1">
                    <mxGeometry x="100" y="150" width="250" height="60" as="geometry"/>
                </mxCell>
                <mxCell id="_463Km25RN-PHhKoPvhk-12" style="edgeStyle=none;html=1;" parent="1" source="_463Km25RN-PHhKoPvhk-5" target="_463Km25RN-PHhKoPvhk-6" edge="1">
                    <mxGeometry relative="1" as="geometry"/>
                </mxCell>
                <mxCell id="_463Km25RN-PHhKoPvhk-5" value="&lt;div style=&quot;color: rgb(56 , 58 , 66) ; font-family: &amp;#34;jetbrainsmono nerd font mono&amp;#34; , monospace , &amp;#34;consolas&amp;#34; , &amp;#34;courier new&amp;#34; , monospace ; line-height: 18px&quot;&gt;&lt;span style=&quot;color: rgb(193 , 132 , 1)&quot;&gt;Matcher&lt;/span&gt;&lt;span style=&quot;color: rgb(228 , 86 , 73)&quot;&gt; m &lt;/span&gt;= &lt;span style=&quot;color: rgb(228 , 86 , 73)&quot;&gt;p&lt;/span&gt;.&lt;span style=&quot;color: rgb(64 , 120 , 242)&quot;&gt;matcher&lt;/span&gt;(strTime);&lt;/div&gt;" style="rounded=1;whiteSpace=wrap;html=1;" parent="1" vertex="1">
                    <mxGeometry x="100" y="250" width="250" height="60" as="geometry"/>
                </mxCell>
                <mxCell id="_463Km25RN-PHhKoPvhk-13" style="edgeStyle=none;html=1;entryX=0.5;entryY=0;entryDx=0;entryDy=0;" parent="1" source="_463Km25RN-PHhKoPvhk-6" target="_463Km25RN-PHhKoPvhk-7" edge="1">
                    <mxGeometry relative="1" as="geometry"/>
                </mxCell>
                <mxCell id="_463Km25RN-PHhKoPvhk-18" style="edgeStyle=none;html=1;" parent="1" source="_463Km25RN-PHhKoPvhk-6" target="_463Km25RN-PHhKoPvhk-17" edge="1">
                    <mxGeometry relative="1" as="geometry"/>
                </mxCell>
                <mxCell id="_463Km25RN-PHhKoPvhk-6" value="&lt;div style=&quot;color: rgb(56 , 58 , 66) ; font-family: &amp;#34;jetbrainsmono nerd font mono&amp;#34; , monospace , &amp;#34;consolas&amp;#34; , &amp;#34;courier new&amp;#34; , monospace ; line-height: 18px&quot;&gt;!&lt;span style=&quot;color: rgb(228 , 86 , 73)&quot;&gt;m&lt;/span&gt;.&lt;span style=&quot;color: rgb(64 , 120 , 242)&quot;&gt;matches&lt;/span&gt;()&lt;/div&gt;" style="rhombus;whiteSpace=wrap;html=1;" parent="1" vertex="1">
                    <mxGeometry x="95" y="350" width="260" height="80" as="geometry"/>
                </mxCell>
                <mxCell id="_463Km25RN-PHhKoPvhk-14" style="edgeStyle=none;html=1;" parent="1" source="_463Km25RN-PHhKoPvhk-7" target="_463Km25RN-PHhKoPvhk-8" edge="1">
                    <mxGeometry relative="1" as="geometry"/>
                </mxCell>
                <mxCell id="_463Km25RN-PHhKoPvhk-7" value="&lt;div style=&quot;color: rgb(56 , 58 , 66) ; font-family: &amp;#34;jetbrainsmono nerd font mono&amp;#34; , monospace , &amp;#34;consolas&amp;#34; , &amp;#34;courier new&amp;#34; , monospace ; line-height: 18px&quot;&gt;&lt;span style=&quot;color: rgb(166 , 38 , 164)&quot;&gt;int&lt;/span&gt;&lt;span style=&quot;color: rgb(228 , 86 , 73)&quot;&gt; hours &lt;/span&gt;= &lt;span style=&quot;color: rgb(228 , 86 , 73)&quot;&gt;Integer&lt;/span&gt;.&lt;span style=&quot;color: rgb(64 , 120 , 242)&quot;&gt;parseInt&lt;/span&gt;(&lt;span style=&quot;color: rgb(228 , 86 , 73)&quot;&gt;m&lt;/span&gt;.&lt;span style=&quot;color: rgb(64 , 120 , 242)&quot;&gt;group&lt;/span&gt;(&lt;span style=&quot;color: rgb(152 , 104 , 1)&quot;&gt;1&lt;/span&gt;));&lt;/div&gt;" style="rounded=1;whiteSpace=wrap;html=1;" parent="1" vertex="1">
                    <mxGeometry x="100" y="470" width="250" height="60" as="geometry"/>
                </mxCell>
                <mxCell id="_463Km25RN-PHhKoPvhk-15" style="edgeStyle=none;html=1;" parent="1" source="_463Km25RN-PHhKoPvhk-8" target="_463Km25RN-PHhKoPvhk-9" edge="1">
                    <mxGeometry relative="1" as="geometry"/>
                </mxCell>
                <mxCell id="_463Km25RN-PHhKoPvhk-8" value="&lt;div style=&quot;color: rgb(56 , 58 , 66) ; font-family: &amp;#34;jetbrainsmono nerd font mono&amp;#34; , monospace , &amp;#34;consolas&amp;#34; , &amp;#34;courier new&amp;#34; , monospace ; line-height: 18px&quot;&gt;&lt;span style=&quot;color: rgb(166 , 38 , 164)&quot;&gt;int&lt;/span&gt;&lt;span style=&quot;color: rgb(228 , 86 , 73)&quot;&gt; minutes &lt;/span&gt;= &lt;span style=&quot;color: rgb(228 , 86 , 73)&quot;&gt;Integer&lt;/span&gt;.&lt;span style=&quot;color: rgb(64 , 120 , 242)&quot;&gt;parseInt&lt;/span&gt;(&lt;span style=&quot;color: rgb(228 , 86 , 73)&quot;&gt;m&lt;/span&gt;.&lt;span style=&quot;color: rgb(64 , 120 , 242)&quot;&gt;group&lt;/span&gt;(&lt;span style=&quot;color: rgb(152 , 104 , 1)&quot;&gt;2&lt;/span&gt;));&lt;/div&gt;" style="rounded=1;whiteSpace=wrap;html=1;" parent="1" vertex="1">
                    <mxGeometry x="100" y="570" width="250" height="60" as="geometry"/>
                </mxCell>
                <mxCell id="24" style="edgeStyle=none;html=1;" edge="1" parent="1" source="_463Km25RN-PHhKoPvhk-9" target="23">
                    <mxGeometry relative="1" as="geometry"/>
                </mxCell>
                <mxCell id="_463Km25RN-PHhKoPvhk-9" value="&lt;div style=&quot;color: rgb(56 , 58 , 66) ; font-family: &amp;#34;jetbrainsmono nerd font mono&amp;#34; , monospace , &amp;#34;consolas&amp;#34; , &amp;#34;courier new&amp;#34; , monospace ; line-height: 18px&quot;&gt;&lt;span style=&quot;color: rgb(166 , 38 , 164)&quot;&gt;int&lt;/span&gt;&lt;span style=&quot;color: rgb(228 , 86 , 73)&quot;&gt; seconds &lt;/span&gt;= &lt;span style=&quot;color: rgb(228 , 86 , 73)&quot;&gt;Integer&lt;/span&gt;.&lt;span style=&quot;color: rgb(64 , 120 , 242)&quot;&gt;parseInt&lt;/span&gt;(&lt;span style=&quot;color: rgb(228 , 86 , 73)&quot;&gt;m&lt;/span&gt;.&lt;span style=&quot;color: rgb(64 , 120 , 242)&quot;&gt;group&lt;/span&gt;(&lt;span style=&quot;color: rgb(152 , 104 , 1)&quot;&gt;3&lt;/span&gt;));&lt;/div&gt;" style="rounded=1;whiteSpace=wrap;html=1;" parent="1" vertex="1">
                    <mxGeometry x="102.5" y="680" width="245" height="60" as="geometry"/>
                </mxCell>
                <mxCell id="4" value="&lt;div style=&quot;text-align: left&quot;&gt;&lt;span style=&quot;font-size: 13px&quot;&gt;def =&amp;nbsp; {p}&lt;/span&gt;&lt;/div&gt;&lt;font style=&quot;font-size: 13px&quot;&gt;&lt;div style=&quot;text-align: left&quot;&gt;&lt;span&gt;c-use = {}&lt;/span&gt;&lt;/div&gt;&lt;div style=&quot;text-align: left&quot;&gt;&lt;span&gt;p-use = {}&lt;/span&gt;&lt;/div&gt;&lt;/font&gt;" style="text;html=1;align=center;verticalAlign=middle;resizable=0;points=[];autosize=1;strokeColor=none;fillColor=none;fontSize=12;" parent="1" vertex="1">
                    <mxGeometry x="370" y="155" width="70" height="50" as="geometry"/>
                </mxCell>
                <mxCell id="_463Km25RN-PHhKoPvhk-19" style="edgeStyle=none;html=1;" parent="1" source="_463Km25RN-PHhKoPvhk-17" target="3" edge="1">
                    <mxGeometry relative="1" as="geometry"/>
                </mxCell>
                <mxCell id="_463Km25RN-PHhKoPvhk-17" value="&lt;div style=&quot;color: rgb(56 , 58 , 66) ; font-family: &amp;#34;jetbrainsmono nerd font mono&amp;#34; , monospace , &amp;#34;consolas&amp;#34; , &amp;#34;courier new&amp;#34; , monospace ; line-height: 18px&quot;&gt;&lt;div style=&quot;font-family: &amp;#34;jetbrainsmono nerd font mono&amp;#34; , monospace , &amp;#34;consolas&amp;#34; , &amp;#34;courier new&amp;#34; , monospace ; line-height: 18px&quot;&gt;&amp;nbsp;&lt;span style=&quot;color: rgb(166 , 38 , 164)&quot;&gt;throw&lt;/span&gt; &lt;span style=&quot;color: rgb(166 , 38 , 164)&quot;&gt;new&lt;/span&gt; &lt;span style=&quot;color: rgb(64 , 120 , 242)&quot;&gt;ParseException&lt;/span&gt;(&lt;span style=&quot;color: rgb(80 , 161 , 79)&quot;&gt;&quot;Invalid seconds-string&quot;&lt;/span&gt;, &lt;span style=&quot;color: rgb(152 , 104 , 1)&quot;&gt;0&lt;/span&gt;);&lt;/div&gt;&lt;/div&gt;" style="rounded=1;whiteSpace=wrap;html=1;" parent="1" vertex="1">
                    <mxGeometry x="490" y="360" width="250" height="60" as="geometry"/>
                </mxCell>
                <mxCell id="_463Km25RN-PHhKoPvhk-20" value="" style="ellipse;html=1;shape=endState;fillColor=#000000;strokeColor=#000000;" parent="1" vertex="1">
                    <mxGeometry x="207.5" y="880" width="30" height="30" as="geometry"/>
                </mxCell>
                <mxCell id="5" value="&lt;div style=&quot;text-align: left&quot;&gt;&lt;span style=&quot;font-size: 13px&quot;&gt;def =&amp;nbsp; {strTime}&lt;/span&gt;&lt;/div&gt;&lt;font style=&quot;font-size: 13px&quot;&gt;&lt;div style=&quot;text-align: left&quot;&gt;&lt;span&gt;c-use = {}&lt;/span&gt;&lt;/div&gt;&lt;div style=&quot;text-align: left&quot;&gt;&lt;span&gt;p-use = {}&lt;/span&gt;&lt;/div&gt;&lt;/font&gt;" style="text;html=1;align=center;verticalAlign=middle;resizable=0;points=[];autosize=1;strokeColor=none;fillColor=none;fontSize=12;" parent="1" vertex="1">
                    <mxGeometry x="255" y="60" width="100" height="50" as="geometry"/>
                </mxCell>
                <mxCell id="6" value="&lt;div style=&quot;text-align: left&quot;&gt;&lt;span style=&quot;font-size: 13px&quot;&gt;def =&amp;nbsp; {m}&lt;/span&gt;&lt;/div&gt;&lt;font style=&quot;font-size: 13px&quot;&gt;&lt;div style=&quot;text-align: left&quot;&gt;&lt;span&gt;c-use = {p, strTime}&lt;/span&gt;&lt;/div&gt;&lt;div style=&quot;text-align: left&quot;&gt;&lt;span&gt;p-use = {}&lt;/span&gt;&lt;/div&gt;&lt;/font&gt;" style="text;html=1;align=center;verticalAlign=middle;resizable=0;points=[];autosize=1;strokeColor=none;fillColor=none;fontSize=12;" parent="1" vertex="1">
                    <mxGeometry x="360" y="255" width="130" height="50" as="geometry"/>
                </mxCell>
                <mxCell id="7" value="&lt;font style=&quot;font-size: 14px&quot;&gt;0&lt;/font&gt;" style="text;html=1;strokeColor=default;fillColor=none;align=center;verticalAlign=middle;whiteSpace=wrap;rounded=0;" parent="1" vertex="1">
                    <mxGeometry x="160" y="70" width="30" height="30" as="geometry"/>
                </mxCell>
                <mxCell id="8" value="&lt;div style=&quot;text-align: left&quot;&gt;&lt;span style=&quot;font-size: 13px&quot;&gt;def =&amp;nbsp; {}&lt;/span&gt;&lt;/div&gt;&lt;font style=&quot;font-size: 13px&quot;&gt;&lt;div style=&quot;text-align: left&quot;&gt;&lt;span&gt;c-use = {}&lt;/span&gt;&lt;/div&gt;&lt;div style=&quot;text-align: left&quot;&gt;&lt;span&gt;p-use = {m}&lt;/span&gt;&lt;/div&gt;&lt;/font&gt;" style="text;html=1;align=center;verticalAlign=middle;resizable=0;points=[];autosize=1;strokeColor=none;fillColor=none;fontSize=12;" parent="1" vertex="1">
                    <mxGeometry x="320" y="325" width="80" height="50" as="geometry"/>
                </mxCell>
                <mxCell id="9" value="&lt;font style=&quot;font-size: 14px&quot;&gt;1&lt;/font&gt;" style="text;html=1;strokeColor=default;fillColor=none;align=center;verticalAlign=middle;whiteSpace=wrap;rounded=0;" parent="1" vertex="1">
                    <mxGeometry x="50" y="165" width="30" height="30" as="geometry"/>
                </mxCell>
                <mxCell id="10" value="&lt;font style=&quot;font-size: 14px&quot;&gt;2&lt;/font&gt;" style="text;html=1;strokeColor=default;fillColor=none;align=center;verticalAlign=middle;whiteSpace=wrap;rounded=0;" parent="1" vertex="1">
                    <mxGeometry x="50" y="265" width="30" height="30" as="geometry"/>
                </mxCell>
                <mxCell id="11" value="&lt;font style=&quot;font-size: 14px&quot;&gt;3&lt;/font&gt;" style="text;html=1;strokeColor=default;fillColor=none;align=center;verticalAlign=middle;whiteSpace=wrap;rounded=0;" parent="1" vertex="1">
                    <mxGeometry x="50" y="375" width="30" height="30" as="geometry"/>
                </mxCell>
                <mxCell id="13" value="&lt;span style=&quot;font-size: 14px&quot;&gt;4&lt;/span&gt;" style="text;html=1;strokeColor=default;fillColor=none;align=center;verticalAlign=middle;whiteSpace=wrap;rounded=0;" parent="1" vertex="1">
                    <mxGeometry x="50" y="480" width="30" height="30" as="geometry"/>
                </mxCell>
                <mxCell id="14" value="&lt;span style=&quot;font-size: 14px&quot;&gt;5&lt;/span&gt;" style="text;html=1;strokeColor=default;fillColor=none;align=center;verticalAlign=middle;whiteSpace=wrap;rounded=0;" parent="1" vertex="1">
                    <mxGeometry x="50" y="585" width="30" height="30" as="geometry"/>
                </mxCell>
                <mxCell id="15" value="&lt;span style=&quot;font-size: 14px&quot;&gt;6&lt;/span&gt;" style="text;html=1;strokeColor=default;fillColor=none;align=center;verticalAlign=middle;whiteSpace=wrap;rounded=0;" parent="1" vertex="1">
                    <mxGeometry x="50" y="690" width="30" height="30" as="geometry"/>
                </mxCell>
                <mxCell id="16" value="&lt;span style=&quot;font-size: 14px&quot;&gt;8&lt;/span&gt;" style="text;html=1;strokeColor=default;fillColor=none;align=center;verticalAlign=middle;whiteSpace=wrap;rounded=0;" parent="1" vertex="1">
                    <mxGeometry x="760" y="375" width="30" height="30" as="geometry"/>
                </mxCell>
                <mxCell id="17" value="&lt;b&gt;false&lt;/b&gt;" style="text;html=1;strokeColor=none;fillColor=none;align=center;verticalAlign=middle;whiteSpace=wrap;rounded=0;fontSize=14;" parent="1" vertex="1">
                    <mxGeometry x="240" y="430" width="60" height="30" as="geometry"/>
                </mxCell>
                <mxCell id="18" value="&lt;b&gt;true&lt;/b&gt;" style="text;html=1;strokeColor=none;fillColor=none;align=center;verticalAlign=middle;whiteSpace=wrap;rounded=0;fontSize=14;" parent="1" vertex="1">
                    <mxGeometry x="380" y="400" width="60" height="30" as="geometry"/>
                </mxCell>
                <mxCell id="19" value="&lt;div style=&quot;text-align: left&quot;&gt;&lt;span style=&quot;font-size: 13px&quot;&gt;def =&amp;nbsp; {}&lt;/span&gt;&lt;/div&gt;&lt;font style=&quot;font-size: 13px&quot;&gt;&lt;div style=&quot;text-align: left&quot;&gt;&lt;span&gt;c-use = {}&lt;/span&gt;&lt;/div&gt;&lt;div style=&quot;text-align: left&quot;&gt;&lt;span&gt;p-use = {}&lt;/span&gt;&lt;/div&gt;&lt;/font&gt;" style="text;html=1;align=center;verticalAlign=middle;resizable=0;points=[];autosize=1;strokeColor=none;fillColor=none;fontSize=12;" parent="1" vertex="1">
                    <mxGeometry x="655" y="300" width="70" height="50" as="geometry"/>
                </mxCell>
                <mxCell id="20" value="&lt;div style=&quot;text-align: left&quot;&gt;&lt;span style=&quot;font-size: 13px&quot;&gt;def =&amp;nbsp; {seconds}&lt;/span&gt;&lt;/div&gt;&lt;font style=&quot;font-size: 13px&quot;&gt;&lt;div style=&quot;text-align: left&quot;&gt;&lt;span&gt;c-use = {m}&lt;/span&gt;&lt;/div&gt;&lt;div style=&quot;text-align: left&quot;&gt;&lt;span&gt;p-use = {}&lt;/span&gt;&lt;/div&gt;&lt;/font&gt;" style="text;html=1;align=center;verticalAlign=middle;resizable=0;points=[];autosize=1;strokeColor=none;fillColor=none;fontSize=12;" parent="1" vertex="1">
                    <mxGeometry x="360" y="685" width="110" height="50" as="geometry"/>
                </mxCell>
                <mxCell id="21" value="&lt;div style=&quot;text-align: left&quot;&gt;&lt;span style=&quot;font-size: 13px&quot;&gt;def =&amp;nbsp; {minutes}&lt;/span&gt;&lt;/div&gt;&lt;font style=&quot;font-size: 13px&quot;&gt;&lt;div style=&quot;text-align: left&quot;&gt;&lt;span&gt;c-use = {m}&lt;/span&gt;&lt;/div&gt;&lt;div style=&quot;text-align: left&quot;&gt;&lt;span&gt;p-use = {}&lt;/span&gt;&lt;/div&gt;&lt;/font&gt;" style="text;html=1;align=center;verticalAlign=middle;resizable=0;points=[];autosize=1;strokeColor=none;fillColor=none;fontSize=12;" parent="1" vertex="1">
                    <mxGeometry x="360" y="575" width="110" height="50" as="geometry"/>
                </mxCell>
                <mxCell id="22" value="&lt;div style=&quot;text-align: left&quot;&gt;&lt;span style=&quot;font-size: 13px&quot;&gt;def =&amp;nbsp; {hours}&lt;/span&gt;&lt;/div&gt;&lt;font style=&quot;font-size: 13px&quot;&gt;&lt;div style=&quot;text-align: left&quot;&gt;&lt;span&gt;c-use = {m}&lt;/span&gt;&lt;/div&gt;&lt;div style=&quot;text-align: left&quot;&gt;&lt;span&gt;p-use = {}&lt;/span&gt;&lt;/div&gt;&lt;/font&gt;" style="text;html=1;align=center;verticalAlign=middle;resizable=0;points=[];autosize=1;strokeColor=none;fillColor=none;fontSize=12;" parent="1" vertex="1">
                    <mxGeometry x="360" y="475" width="90" height="50" as="geometry"/>
                </mxCell>
                <mxCell id="26" style="edgeStyle=none;html=1;" edge="1" parent="1" source="23" target="_463Km25RN-PHhKoPvhk-20">
                    <mxGeometry relative="1" as="geometry"/>
                </mxCell>
                <mxCell id="23" value="&lt;div style=&quot;color: rgb(56 , 58 , 66) ; font-family: &amp;#34;jetbrainsmono nerd font mono&amp;#34; , monospace , &amp;#34;consolas&amp;#34; , &amp;#34;courier new&amp;#34; , monospace ; line-height: 18px&quot;&gt;&lt;div style=&quot;font-family: &amp;#34;jetbrainsmono nerd font mono&amp;#34; , monospace , &amp;#34;consolas&amp;#34; , &amp;#34;courier new&amp;#34; , monospace ; line-height: 18px&quot;&gt;&lt;span style=&quot;color: rgb(166 , 38 , 164)&quot;&gt;return&lt;/span&gt; (hours * &lt;span style=&quot;color: rgb(152 , 104 , 1)&quot;&gt;3600&lt;/span&gt; + minutes * &lt;span style=&quot;color: rgb(152 , 104 , 1)&quot;&gt;60&lt;/span&gt; + seconds);&lt;/div&gt;&lt;/div&gt;" style="rounded=1;whiteSpace=wrap;html=1;" vertex="1" parent="1">
                    <mxGeometry x="100" y="780" width="245" height="60" as="geometry"/>
                </mxCell>
                <mxCell id="25" value="&lt;div style=&quot;text-align: left&quot;&gt;&lt;span style=&quot;font-size: 13px&quot;&gt;def =&amp;nbsp; {}&lt;/span&gt;&lt;/div&gt;&lt;font style=&quot;font-size: 13px&quot;&gt;&lt;div style=&quot;text-align: left&quot;&gt;&lt;span&gt;c-use = {hours, minutes, seconds}&lt;/span&gt;&lt;/div&gt;&lt;div style=&quot;text-align: left&quot;&gt;&lt;span&gt;p-use = {}&lt;/span&gt;&lt;/div&gt;&lt;/font&gt;" style="text;html=1;align=center;verticalAlign=middle;resizable=0;points=[];autosize=1;strokeColor=none;fillColor=none;fontSize=12;" vertex="1" parent="1">
                    <mxGeometry x="360" y="790" width="210" height="50" as="geometry"/>
                </mxCell>
                <mxCell id="27" value="&lt;span style=&quot;font-size: 14px&quot;&gt;7&lt;/span&gt;" style="text;html=1;strokeColor=default;fillColor=none;align=center;verticalAlign=middle;whiteSpace=wrap;rounded=0;" vertex="1" parent="1">
                    <mxGeometry x="50" y="800" width="30" height="30" as="geometry"/>
                </mxCell>
            </root>
        </mxGraphModel>
    </diagram>
</mxfile>